<svg width="90" height="68" viewBox="0 0 90 68" fill="none" xmlns="http://www.w3.org/2000/svg">
<path d="M90 43.0883C89.9925 49.6622 87.4046 55.9646 82.8044 60.6127C78.2041 65.2607 71.9671 67.8748 65.4619 67.8814H51.8735C50.7936 67.8814 49.7578 67.4478 48.9942 66.6761C48.2305 65.9044 47.8015 64.8577 47.8015 63.7663C47.8015 62.675 48.2305 61.6283 48.9942 60.8566C49.7578 60.0848 50.7936 59.6513 51.8735 59.6513H65.4619C67.6363 59.6859 69.7957 59.2831 71.8145 58.4661C73.8333 57.6492 75.6711 56.4346 77.2209 54.8929C78.7707 53.3513 80.0014 51.5135 80.8415 49.4865C81.6817 47.4595 82.1143 45.2839 82.1143 43.0863C82.1143 40.8887 81.6817 38.713 80.8415 36.6861C80.0014 34.6591 78.7707 32.8213 77.2209 31.2796C75.6711 29.738 73.8333 28.5233 71.8145 27.7064C69.7957 26.8895 67.6363 26.4866 65.4619 26.5213H15.2334L28.2191 37.566C28.632 37.9128 28.9729 38.3387 29.2223 38.8192C29.4716 39.2996 29.6245 39.8252 29.6721 40.3656C29.7197 40.906 29.6611 41.4506 29.4997 41.9681C29.3382 42.4855 29.0771 42.9656 28.7313 43.3806C28.3855 43.7957 27.962 44.1376 27.485 44.3866C27.008 44.6356 26.4869 44.7868 25.9519 44.8315C25.4168 44.8763 24.8783 44.8136 24.3673 44.6472C23.8563 44.4808 23.3829 44.214 22.9743 43.862L1.44952 25.5542C0.995493 25.168 0.630509 24.6861 0.380122 24.1423C0.129735 23.5985 0 23.006 0 22.4062C0 21.8065 0.129735 21.2139 0.380122 20.6702C0.630509 20.1264 0.995493 19.6445 1.44952 19.2582L22.9743 0.950493C23.8014 0.255709 24.867 -0.080159 25.9383 0.0162206C27.0096 0.1126 27.9997 0.633398 28.6924 1.46491C29.3851 2.29642 29.7241 3.3711 29.6354 4.45432C29.5467 5.53754 29.0376 6.54131 28.2191 7.24648L15.2374 18.2953H65.4619C71.9668 18.3029 78.2032 20.9174 82.8032 25.5652C87.4032 30.213 89.9914 36.5148 90 43.0883Z" fill="white"/>
</svg>
