<svg width="400" height="479" viewBox="0 0 400 479" fill="none" xmlns="http://www.w3.org/2000/svg">
<path d="M378.707 161.034H329.103V129.102C329.103 57.795 271.309 0 200.002 0C128.694 0 70.9003 57.7939 70.9003 129.102V161.034H21.297C15.5592 161.034 10.0707 163.362 6.03766 167.478C2.04615 171.595 -0.157487 177.124 0.00877324 182.862V456.946C0.00877324 462.601 2.25402 468.006 6.24553 471.998C10.237 475.989 15.6422 478.234 21.2972 478.234H378.703C384.357 478.234 389.763 475.989 393.754 471.998C397.746 468.006 399.991 462.601 399.991 456.946V182.862C400.158 177.124 397.954 171.594 393.962 167.478C389.929 163.362 384.445 161.034 378.707 161.034ZM224.283 333.712V361.611V361.569C224.283 374.999 213.39 385.851 200.002 385.851C186.614 385.851 175.721 374.999 175.721 361.569V333.712C159.838 323.026 152.77 303.193 158.341 284.858C163.954 266.563 180.835 254.007 200.003 254.007C219.171 254.007 236.051 266.564 241.665 284.858C247.236 303.194 240.166 323.026 224.283 333.712ZM282.618 161.076L117.39 161.035V129.103C117.39 83.4907 154.395 46.5282 200.006 46.5282C245.617 46.5282 282.622 83.4918 282.622 129.103L282.618 161.076Z" fill="black"/>
</svg>
